<?xml version="1.0" encoding="UTF-8" standalone="no"?>
<!-- Created with Inkscape (http://www.inkscape.org/) -->

<svg
   version="1.1"
   id="svg1"
   width="385"
   height="512"
   viewBox="0 0 385 512"
   xmlns="http://www.w3.org/2000/svg"
   xmlns:svg="http://www.w3.org/2000/svg">
  <defs
     id="defs1" />
  <g
     id="g1"
     style="display:inline">
    <g
       id="g17"
       style="display:inline;fill:#fac24b;fill-opacity:1">
      <path
         style="display:inline;fill:#fac24b;fill-opacity:1;stroke:none;stroke-width:1.00157;paint-order:stroke fill markers"
         d="M 127.79268,101.15186 107.53456,112.2522 C 92.064863,89.333543 84.634809,57.663935 133.75912,43.707595 l 1.94256,12.626639 4.16262,11.794113 c -21.12201,2.063506 -26.09317,12.093468 -12.07162,33.023513 z"
         id="path1" />
      <path
         style="display:inline;fill:#fac24b;fill-opacity:1;stroke:none;stroke-width:1.00157;paint-order:stroke fill markers"
         d="m 130.56777,32.607254 3.3301,11.100341 1.94256,12.34913 c 12.80733,-2.749275 24.53058,-6.165681 41.90379,-6.105188 l 24.42075,-0.832526 c 14.31059,2.226907 29.98614,4.424769 41.48753,7.353977 l 6.52145,-24.004489 c -21.35596,-5.579351 -38.94768,-7.080778 -55.91797,-7.908993 v -8.602765 h 7.90899 L 202.02622,8.0477477 194.39473,7.9089934 194.25598,0 l -8.32526,0.13875427 0.27751,8.46401053 -7.49273,-0.4162629 0.27751,8.4640101 6.6602,-0.555017 0.27751,8.325257 c -15.20996,0.70669 -29.74494,1.042123 -55.36295,8.186502 z"
         id="path2" />
      <path
         style="fill:#fac24b;fill-opacity:1;stroke:none;stroke-width:1.00157;paint-order:stroke fill markers"
         d="m 240.75,68.5 6,-23.125 C 291.74571,53.302295 291.8007,88.389196 273.5,114 L 252.625,102.75 C 261.45241,88.382776 270.01425,74.076839 240.75,68.5 Z"
         id="path3" />
      <path
         style="fill:#fac24b;fill-opacity:1;stroke:none;stroke-width:1.00157;paint-order:stroke fill markers"
         d="M 177.625,49.125 202,49.25 V 108 c 18.62317,1.74392 36.16629,6.05299 52.125,14.125 l -11.75,21.375 c -33.80748,-14.38592 -68.61033,-15.97428 -104.75,-0.375 l -11.75,-21 c 15.43799,-6.45913 31.13223,-12.69215 52.125,-14.25 z"
         id="path4" />
    </g>
    <g
       id="g18"
       style="display:inline;fill:#004b96;fill-opacity:1">
      <path
         style="fill:#004b96;fill-opacity:1;stroke:#ff0000;stroke-width:1.00157;paint-order:stroke fill markers"
         d="m 89.007066,157.06609 h 95.812964 l -16.26345,67.88225 -50.02781,-25.19067 c -2.55904,-0.55136 -4.03685,1.05976 -4.59619,4.5078 l 25.8094,51.08847 -50.558137,16.97056 z"
         id="path5" />
      <path
         style="fill:#004b96;fill-opacity:1;stroke:#ff0000;stroke-width:1.00157;paint-order:stroke fill markers"
         d="m 291.37298,157.06609 h -95.81296 l 16.26345,67.88225 50.02781,-25.19067 c 2.0424,0.99226 3.8725,2.19683 4.59619,4.5078 l -25.8094,51.08847 50.55814,16.97056 z"
         id="path6" />
      <path
         style="fill:#004b96;fill-opacity:1;stroke:#ff0000;stroke-width:1.00157;paint-order:stroke fill markers"
         d="M 89.25,280.25 139.5,299 115,346 c -0.91199,5.86466 1.66571,7.46413 6.75,6 L 168,328.25 185.5,395 C 122.03632,393.02531 80.760726,345.59714 89.25,280.25 Z"
         id="path7" />
      <path
         style="fill:#004b96;fill-opacity:1;stroke:#ff0000;stroke-width:1.00157;paint-order:stroke fill markers"
         d="m 290.30036,281 -50.25,18.75 24.5,47 c 0.91199,5.86466 -1.66571,7.46413 -6.75,6 l -46.25,-23.75 -17.5,66.75 c 63.46368,-1.97469 104.73927,-49.40286 96.25,-114.75 z"
         id="path8" />
    </g>
    <g
       id="g25"
       style="display:inline;fill:#fac24b;fill-opacity:1">
      <path
         style="fill:#fac24b;fill-opacity:1;stroke:#000080;stroke-width:0.188976;stroke-dasharray:none;paint-order:stroke fill markers"
         d="m 190.73461,156.30642 0.0297,120.58157 -17.22953,-43.7611 z"
         id="path9" />
      <path
         style="fill:#fac24b;fill-opacity:1;stroke:#000080;stroke-width:0.188976;stroke-dasharray:none;paint-order:stroke fill markers"
         d="m 262.35909,205.3142 -71.63727,71.48903 19.03283,-43.0327 z"
         id="path19" />
      <path
         style="fill:#fac24b;fill-opacity:1;stroke:#000080;stroke-width:0.188976;stroke-dasharray:none;paint-order:stroke fill markers"
         d="m 288.8052,276.71451 -98.05301,5.5e-4 44.12974,-16.26212 z"
         id="path20" />
      <path
         style="fill:#fac24b;fill-opacity:1;stroke:#000080;stroke-width:0.188976;stroke-dasharray:none;paint-order:stroke fill markers"
         d="m 260.0188,346.44454 -69.18214,-69.77004 43.04301,19.67452 z"
         id="path21" />
      <path
         style="fill:#fac24b;fill-opacity:1;stroke:#000080;stroke-width:0.188976;stroke-dasharray:none;paint-order:stroke fill markers"
         d="m 191.35368,396.28482 -0.4323,-119.58156 17.19416,43.77502 z"
         id="path22" />
      <path
         style="fill:#fac24b;fill-opacity:1;stroke:#000080;stroke-width:0.188976;stroke-dasharray:none;paint-order:stroke fill markers"
         d="m 118.96714,348.6636 71.99668,-71.87552 -19.58877,43.13212 z"
         id="path23" />
      <path
         style="fill:#fac24b;fill-opacity:1;stroke:#000080;stroke-width:0.188976;stroke-dasharray:none;paint-order:stroke fill markers"
         d="m 89.880209,276.76387 101.053281,0.1122 -44.25311,17.01659 z"
         id="path24" />
      <path
         style="fill:#fac24b;fill-opacity:1;stroke:#000080;stroke-width:0.188976;stroke-dasharray:none;paint-order:stroke fill markers"
         d="m 121.76706,208.62065 69.08358,68.29592 -43.55397,-19.1112 z"
         id="path25" />
    </g>
  </g>
</svg>
