<?xml version="1.0" encoding="UTF-8" standalone="no"?>
<!-- Created with Inkscape (http://www.inkscape.org/) -->

<svg
   width="210mm"
   height="297mm"
   viewBox="0 0 210 297"
   version="1.1"
   id="svg1"
   xml:space="preserve"
   xmlns="http://www.w3.org/2000/svg"
   xmlns:svg="http://www.w3.org/2000/svg"><defs
     id="defs1" /><g
     id="layer1"><path
       style="fill:#800000;stroke:none;stroke-width:0.0499999;paint-order:stroke fill markers"
       d="m 51.586847,85.644181 c 5.169168,-5.631455 10.493631,-10.921262 15.275715,-17.404301 1.271593,-3.620244 1.848137,-10.299111 2.504215,-14.27403 0.52139,-0.788348 1.180604,-1.014651 2.034676,-1.220805 1.817133,0.244782 3.239595,0.912409 9.609928,4.601497 8.948269,-7.454783 15.237097,-11.760524 21.536259,-15.990307 8.4749,6.147264 16.93421,12.866575 25.29258,22.626478 l 9.89165,-4.131956 c -0.73564,4.158071 -1.11063,7.95549 -1.37732,11.644604 4.08387,5.640839 7.77377,11.67564 11.26897,17.905145 -9.26562,3.368121 -17.00299,7.745865 -13.11046,17.169064 5.75231,-0.28463 11.80087,-1.71728 18.49453,-5.64967 -2.95532,8.9414 -8.26531,17.16616 -13.8984,25.29258 -14.4748,-12.48398 -17.73525,-3.47313 -24.54132,9.2656 -2.66899,8.13793 4.03465,9.62089 10.26729,4.75801 -6.17416,17.5719 -11.39052,21.59766 -16.77825,28.04721 -0.90585,-10.42454 -1.50245,-20.84908 -2.82799,-31.27361 7.9661,-17.465 22.92256,-33.51047 14.22217,-55.372255 -4.62904,-8.650822 -10.68996,-13.006001 -18.6564,-11.644603 -20.21739,1.812622 -27.336452,19.453635 -22.224919,33.775618 8.396722,21.23742 21.272,26.69705 12.583684,73.02919 L 74.37521,147.12268 c 5.093756,1.74255 11.816263,4.12085 11.081154,-9.17169 0.07428,-8.06639 -6.20924,-23.70689 -22.412732,-14.52445 -5.938335,-8.24096 -13.430004,-15.64411 -16.966061,-25.386491 6.515052,4.423291 15.480267,9.088621 19.094644,8.232611 2.710408,-9.96975 -6.500927,-18.155569 -13.585368,-20.628479 z"
       id="path1" /><path
       style="fill:#800000;stroke:none;stroke-width:0.0499999;paint-order:stroke fill markers"
       d="m 88.183251,90.750833 c 3.836039,-5.504449 8.365426,-10.563174 13.369149,-15.316969 4.77203,4.336341 8.37858,9.902919 12.12962,15.316969 -4.61731,6.658295 -8.24961,11.038767 -11.95255,15.582587 -4.617109,-4.48228 -9.253065,-8.832623 -13.546219,-15.582587 z"
       id="path2" /></g></svg>
